# xmcd CD database file
#
# Track frame offsets:
#	150
#	26191
#	53133
#	80224
#	109842
#	140351
#
# Disc length: 2070 seconds
#
# Revision: 7
# Processed by: cddbd v1.5.2PL0 Copyright (c) Steve Scherf et al.
# Submitted via: CDex 1.70beta2
#
DISCID=51081406
DTITLE=Sonny Rollins - Tune Up - Kind Of Rollins CD-7
DYEAR=1957
DGENRE=Jazz
TTITLE0=Tune Up (Davis) *1
TTITLE1=Asiatic Raes (Dorham) *1
TTITLE2=Wonderful! Wonderful! (Edwards/Raleigh) •1
TTITLE3=The Surrey With The Fringe On Top (Rodgers/Hammerstein) 2
TTITLE4=Blues For Philly Joe (Rollins) *1
TTITLE5=Namely You (Paul/Mercer) *1
EXTD=Newk's Time\n\n YEAR: 1957
EXTT0=
EXTT1=
EXTT2=
EXTT3=
EXTT4=
EXTT5=
PLAYORDER=
